<?xml version="1.0" encoding="iso-8859-1"?>
<!-- Generator: Adobe Illustrator 19.0.0, SVG Export Plug-In . SVG Version: 6.00 Build 0)  -->
<svg version="1.1" id="Layer_1" xmlns="http://www.w3.org/2000/svg" xmlns:xlink="http://www.w3.org/1999/xlink" x="0px" y="0px"
	 viewBox="0 0 508.968 508.968" style="enable-background:new 0 0 508.968 508.968;" xml:space="preserve">
<path style="fill:#EA5F6E;" d="M481.154,407.585c-5.764-22.718-22.379-41.367-44.758-49.166l-84.429-29.838l-46.792-47.809h-50.861
	h-50.861l-46.792,48.148l-84.429,29.838c-22.04,7.799-38.993,26.109-44.758,49.166L2.383,508.968h504.201L481.154,407.585z"/>
<g>
	<rect x="187.178" y="277.042" style="fill:#EEB490;" width="130.543" height="82.056"/>
	<ellipse style="fill:#EEB490;" cx="165.138" cy="186.51" rx="22.04" ry="32.551"/>
	<ellipse style="fill:#EEB490;" cx="339.761" cy="186.51" rx="22.04" ry="32.551"/>
</g>
<path style="fill:#FACCB4;" d="M169.207,78.346v161.06c0,46.114,37.298,83.412,83.412,83.412l0,0
	c46.114,0,83.412-37.298,83.412-83.412V78.346H169.207z"/>
<path style="fill:#8A6753;" d="M350.272,66.817C329.25-3.032,252.28,0.02,252.28,0.02s-76.63-3.052-97.653,66.797
	c-15.597,51.539,14.58,107.147,14.58,107.147s6.103-62.728,23.735-75.613c17.632-12.546,45.775,0,59.677,0
	c13.902,0,42.045-12.546,59.677,0s23.735,75.613,23.735,75.613S365.53,118.695,350.272,66.817z"/>
<g>
	<polygon style="fill:#FF667C;" points="187.178,297.726 254.315,359.098 211.591,420.131 156.662,328.92 	"/>
	<polygon style="fill:#FF667C;" points="321.451,297.726 254.315,359.098 296.699,420.131 351.967,328.92 	"/>
</g>
<g>
	<path style="fill:#7D5E4A;" d="M252.28,88.179c-3.73,0-6.781-3.052-6.781-6.781V51.559c0-3.73,3.052-6.781,6.781-6.781
		c3.73,0,6.781,3.052,6.781,6.781v29.838C259.062,85.127,256.01,88.179,252.28,88.179z"/>
	<path style="fill:#7D5E4A;" d="M217.356,84.449c-3.73,0-6.781-3.052-6.781-6.781V47.829c0-3.73,3.052-6.781,6.781-6.781
		s6.781,3.052,6.781,6.781v29.838C224.137,81.397,221.085,84.449,217.356,84.449z"/>
	<path style="fill:#7D5E4A;" d="M287.205,84.449c-3.73,0-6.781-3.052-6.781-6.781V47.829c0-3.73,3.052-6.781,6.781-6.781
		s6.781,3.052,6.781,6.781v29.838C293.986,81.397,290.934,84.449,287.205,84.449z"/>
</g>
<g>
</g>
<g>
</g>
<g>
</g>
<g>
</g>
<g>
</g>
<g>
</g>
<g>
</g>
<g>
</g>
<g>
</g>
<g>
</g>
<g>
</g>
<g>
</g>
<g>
</g>
<g>
</g>
<g>
</g>
</svg>
